<?xml version="1.0" encoding="UTF-8" standalone="no"?>
<svg
   height="24px"
   viewBox="0 -960 960 960"
   width="24px"
   fill="#e8eaed"
   version="1.1"
   id="svg1"
   sodipodi:docname="directions_run_24dp_E8EAED_FILL1_wght400_GRAD0_opsz24.svg"
   inkscape:version="1.3.2 (091e20ef0f, 2023-11-25, custom)"
   xmlns:inkscape="http://www.inkscape.org/namespaces/inkscape"
   xmlns:sodipodi="http://sodipodi.sourceforge.net/DTD/sodipodi-0.dtd"
   xmlns="http://www.w3.org/2000/svg"
   xmlns:svg="http://www.w3.org/2000/svg">
  <defs
     id="defs1" />
  <sodipodi:namedview
     id="namedview1"
     pagecolor="#ffffff"
     bordercolor="#000000"
     borderopacity="0.25"
     inkscape:showpageshadow="2"
     inkscape:pageopacity="0.0"
     inkscape:pagecheckerboard="0"
     inkscape:deskcolor="#d1d1d1"
     inkscape:zoom="31.25"
     inkscape:cx="12"
     inkscape:cy="11.984"
     inkscape:window-width="1920"
     inkscape:window-height="1011"
     inkscape:window-x="0"
     inkscape:window-y="0"
     inkscape:window-maximized="1"
     inkscape:current-layer="svg1" />
  <rect
     style="fill:#f66151;stroke-width:20;fill-opacity:1"
     id="rect1"
     width="960"
     height="960"
     x="0"
     y="-960" />
  <path
     d="M520-40v-240l-84-80-40 176-276-56 16-80 192 40 64-324-72 28v136h-80v-188l158-68q35-15 51.5-19.5T480-720q21 0 39 11t29 29l40 64q26 42 70.5 69T760-520v80q-66 0-123.5-27.5T540-540l-24 120 84 80v300h-80Zm20-700q-33 0-56.5-23.5T460-820q0-33 23.5-56.5T540-900q33 0 56.5 23.5T620-820q0 33-23.5 56.5T540-740Z"
     id="path1"
     style="stroke:none;fill:#1f2937;fill-opacity:1" />
</svg>
